<mxfile host="65bd71144e">
    <diagram id="8D_UWUipSkdP3WMS76nW" name="Packet Protocol">
        <mxGraphModel dx="1831" dy="1216" grid="1" gridSize="10" guides="1" tooltips="1" connect="1" arrows="1" fold="1" page="0" pageScale="1" pageWidth="850" pageHeight="1100" background="#131414" math="1" shadow="0" adaptiveColors="none">
            <root>
                <mxCell id="0"/>
                <mxCell id="1" parent="0"/>
                <mxCell id="65" value="" style="rounded=0;whiteSpace=wrap;html=1;fillColor=light-dark(#FDF6E3,#FDF6E3);connectable=0;allowArrows=0;fontColor=#586E75;" parent="1" vertex="1">
                    <mxGeometry x="-200" y="-80" width="1000" height="550" as="geometry"/>
                </mxCell>
                <mxCell id="9" value="&lt;span style=&quot;font-size: 16px;&quot;&gt;&lt;font style=&quot;color: rgb(253, 246, 227);&quot;&gt;HEADER&lt;/font&gt;&lt;/span&gt;" style="rounded=0;whiteSpace=wrap;html=1;shadow=0;glass=0;labelBackgroundColor=none;labelBorderColor=none;fillStyle=auto;strokeColor=light-dark(#073642,#002B36);fontFamily=Courier New;fontSize=16;fontColor=light-dark(#FDF6E3,#FDF6E3);fillColor=light-dark(#268BD2,#268BD2);fontStyle=1" parent="1" vertex="1">
                    <mxGeometry x="-80" width="400" height="40" as="geometry"/>
                </mxCell>
                <mxCell id="10" value="&lt;span&gt;&lt;font style=&quot;color: rgb(253, 246, 227);&quot;&gt;PAYLOAD&lt;/font&gt;&lt;/span&gt;" style="rounded=0;whiteSpace=wrap;html=1;shadow=0;glass=0;labelBackgroundColor=none;labelBorderColor=none;fillStyle=auto;strokeColor=light-dark(#073642,#002B36);fontFamily=Courier New;fontSize=16;fontColor=light-dark(#FDF6E3,#FDF6E3);fillColor=#586E75;fontStyle=1" parent="1" vertex="1">
                    <mxGeometry x="320.83000000000004" width="240" height="80" as="geometry"/>
                </mxCell>
                <mxCell id="11" value="CRC" style="rounded=0;whiteSpace=wrap;html=1;shadow=0;glass=0;labelBackgroundColor=none;labelBorderColor=none;fillStyle=auto;strokeColor=light-dark(#073642,#002B36);fontFamily=Courier New;fontSize=16;fontColor=light-dark(#FDF6E3,#FDF6E3);fillColor=#859900;fontStyle=1;" parent="1" vertex="1">
                    <mxGeometry x="560.83" width="80" height="80" as="geometry"/>
                </mxCell>
                <mxCell id="12" value="" style="endArrow=none;html=1;fontFamily=Helvetica;fontSize=16;fontColor=#2AA198;strokeColor=light-dark(#073642,#002B36);" parent="1" edge="1">
                    <mxGeometry width="50" height="50" relative="1" as="geometry">
                        <mxPoint x="-80" y="100" as="sourcePoint"/>
                        <mxPoint x="720" y="100" as="targetPoint"/>
                    </mxGeometry>
                </mxCell>
                <mxCell id="13" value="" style="endArrow=none;html=1;fontFamily=Helvetica;fontSize=16;fontColor=#2AA198;strokeColor=#586E75;" parent="1" edge="1">
                    <mxGeometry width="50" height="50" relative="1" as="geometry">
                        <mxPoint y="110" as="sourcePoint"/>
                        <mxPoint y="90" as="targetPoint"/>
                    </mxGeometry>
                </mxCell>
                <mxCell id="15" value="" style="endArrow=none;html=1;fontFamily=Helvetica;fontSize=16;fontColor=#2AA198;strokeColor=#586E75;" parent="1" edge="1">
                    <mxGeometry width="50" height="50" relative="1" as="geometry">
                        <mxPoint x="320" y="110" as="sourcePoint"/>
                        <mxPoint x="320" y="90" as="targetPoint"/>
                        <Array as="points">
                            <mxPoint x="320" y="100"/>
                        </Array>
                    </mxGeometry>
                </mxCell>
                <mxCell id="16" value="" style="endArrow=none;html=1;fontFamily=Helvetica;fontSize=16;fontColor=#2AA198;strokeColor=#586E75;" parent="1" edge="1">
                    <mxGeometry width="50" height="50" relative="1" as="geometry">
                        <mxPoint x="560.83" y="110" as="sourcePoint"/>
                        <mxPoint x="560.83" y="90" as="targetPoint"/>
                        <Array as="points">
                            <mxPoint x="560.83" y="100"/>
                        </Array>
                    </mxGeometry>
                </mxCell>
                <mxCell id="17" value="" style="endArrow=none;html=1;fontFamily=Helvetica;fontSize=16;fontColor=#2AA198;strokeColor=#586E75;" parent="1" edge="1">
                    <mxGeometry width="50" height="50" relative="1" as="geometry">
                        <mxPoint x="640.83" y="110" as="sourcePoint"/>
                        <mxPoint x="640.83" y="90" as="targetPoint"/>
                        <Array as="points">
                            <mxPoint x="640.83" y="100"/>
                        </Array>
                    </mxGeometry>
                </mxCell>
                <mxCell id="20" value="0-255 bytes" style="text;html=1;strokeColor=none;fillColor=none;align=center;verticalAlign=middle;whiteSpace=wrap;rounded=0;shadow=0;glass=0;labelBackgroundColor=none;labelBorderColor=none;fillStyle=auto;fontFamily=Courier New;fontSize=16;fontColor=#586E75;" parent="1" vertex="1">
                    <mxGeometry x="378.33000000000004" y="100" width="125" height="30" as="geometry"/>
                </mxCell>
                <mxCell id="21" value="2 bytes" style="text;html=1;strokeColor=none;fillColor=none;align=center;verticalAlign=middle;whiteSpace=wrap;rounded=0;shadow=0;glass=0;labelBackgroundColor=none;labelBorderColor=none;fillStyle=auto;fontFamily=Courier New;fontSize=16;fontColor=#586E75;" parent="1" vertex="1">
                    <mxGeometry x="565.41" y="100" width="70.83" height="30" as="geometry"/>
                </mxCell>
                <mxCell id="22" value="" style="shape=curlyBracket;whiteSpace=wrap;html=1;rounded=1;labelPosition=left;verticalLabelPosition=middle;align=right;verticalAlign=middle;direction=south;size=0.5;strokeColor=#586E75;fontColor=#586E75;" parent="1" vertex="1">
                    <mxGeometry x="-80" y="-30" width="720" height="20" as="geometry"/>
                </mxCell>
                <mxCell id="24" value="Encoded with COBS" style="text;html=1;strokeColor=none;fillColor=none;align=center;verticalAlign=middle;whiteSpace=wrap;rounded=0;fontFamily=Courier New;fontColor=#586E75;fontSize=16;" parent="1" vertex="1">
                    <mxGeometry x="190" y="-70" width="180" height="30" as="geometry"/>
                </mxCell>
                <mxCell id="25" value="x00" style="rounded=0;whiteSpace=wrap;html=1;shadow=0;glass=0;labelBackgroundColor=none;labelBorderColor=none;fillStyle=auto;strokeColor=light-dark(#073642,#002B36);fontFamily=Courier New;fontSize=16;fontColor=light-dark(#FDF6E3,#FDF6E3);fillColor=#002B36;fontStyle=1;" parent="1" vertex="1">
                    <mxGeometry x="640.83" width="80" height="80" as="geometry"/>
                </mxCell>
                <mxCell id="27" value="Termination byte" style="text;html=1;strokeColor=none;fillColor=none;align=center;verticalAlign=middle;whiteSpace=wrap;rounded=0;fontFamily=Courier New;fontColor=#586E75;fontSize=16;" parent="1" vertex="1">
                    <mxGeometry x="625.83" y="-40" width="110" height="30" as="geometry"/>
                </mxCell>
                <mxCell id="32" value="&lt;span style=&quot;font-size: 16px;&quot;&gt;&lt;font style=&quot;color: rgb(253, 246, 227);&quot;&gt;LENGTH&lt;/font&gt;&lt;/span&gt;" style="rounded=0;whiteSpace=wrap;html=1;shadow=0;glass=0;labelBackgroundColor=none;labelBorderColor=none;fillStyle=auto;strokeColor=light-dark(#073642,#002B36);fontFamily=Courier New;fontSize=16;fontColor=light-dark(#FDF6E3,#FDF6E3);fillColor=#6C71C4;fontStyle=1" parent="1" vertex="1">
                    <mxGeometry y="40" width="80" height="40" as="geometry"/>
                </mxCell>
                <mxCell id="33" value="&lt;span style=&quot;font-size: 16px;&quot;&gt;&lt;font style=&quot;color: rgb(253, 246, 227);&quot;&gt;CONTROL&lt;/font&gt;&lt;/span&gt;" style="rounded=0;whiteSpace=wrap;html=1;shadow=0;glass=0;labelBackgroundColor=none;labelBorderColor=none;fillStyle=auto;strokeColor=light-dark(#073642,#002B36);fontFamily=Courier New;fontSize=16;fontColor=light-dark(#FDF6E3,#FDF6E3);fillColor=#D33682;fontStyle=1" parent="1" vertex="1">
                    <mxGeometry x="80" y="40" width="80" height="40" as="geometry"/>
                </mxCell>
                <mxCell id="35" value="" style="endArrow=none;html=1;fontFamily=Helvetica;fontSize=16;fontColor=#2AA198;strokeColor=#586E75;" parent="1" edge="1">
                    <mxGeometry width="50" height="50" relative="1" as="geometry">
                        <mxPoint x="79" y="110" as="sourcePoint"/>
                        <mxPoint x="79" y="90" as="targetPoint"/>
                        <Array as="points">
                            <mxPoint x="79" y="100"/>
                        </Array>
                    </mxGeometry>
                </mxCell>
                <mxCell id="37" value="1 byte" style="text;html=1;strokeColor=none;fillColor=none;align=center;verticalAlign=middle;whiteSpace=wrap;rounded=0;shadow=0;glass=0;labelBackgroundColor=none;labelBorderColor=none;fillStyle=auto;fontFamily=Courier New;fontSize=16;fontColor=#586E75;" parent="1" vertex="1">
                    <mxGeometry x="5.000000000000014" y="100" width="70" height="30" as="geometry"/>
                </mxCell>
                <mxCell id="38" value="1 byte" style="text;html=1;strokeColor=none;fillColor=none;align=center;verticalAlign=middle;whiteSpace=wrap;rounded=0;shadow=0;glass=0;labelBackgroundColor=none;labelBorderColor=none;fillStyle=auto;fontFamily=Courier New;fontSize=16;fontColor=#586E75;" parent="1" vertex="1">
                    <mxGeometry x="90" y="100" width="60" height="30" as="geometry"/>
                </mxCell>
                <mxCell id="41" value="&lt;b&gt;&lt;font style=&quot;color: rgb(253, 246, 227);&quot;&gt;CONTROL&lt;/font&gt;&lt;/b&gt;" style="rounded=0;whiteSpace=wrap;html=1;shadow=0;glass=0;labelBackgroundColor=none;labelBorderColor=none;fillStyle=auto;strokeColor=light-dark(#073642,#002B36);fontFamily=Courier New;fontSize=16;fontColor=light-dark(#FDF6E3,#FDF6E3);fillColor=#D33682;fontStyle=0" parent="1" vertex="1">
                    <mxGeometry x="-160" y="190" width="320" height="40" as="geometry"/>
                </mxCell>
                <mxCell id="45" style="edgeStyle=orthogonalEdgeStyle;html=1;exitX=0.25;exitY=1;exitDx=0;exitDy=0;fontSize=16;rounded=0;elbow=vertical;entryX=0;entryY=0.5;entryDx=0;entryDy=0;strokeColor=light-dark(#586E75,#002B36);" parent="1" source="42" target="46" edge="1">
                    <mxGeometry relative="1" as="geometry">
                        <mxPoint x="-40" y="310" as="targetPoint"/>
                        <Array as="points">
                            <mxPoint x="-70" y="345"/>
                        </Array>
                    </mxGeometry>
                </mxCell>
                <mxCell id="42" value="&lt;span&gt;&lt;font style=&quot;color: rgb(253, 246, 227);&quot;&gt;DEVICE ID&lt;/font&gt;&lt;/span&gt;" style="rounded=0;whiteSpace=wrap;html=1;shadow=0;glass=0;labelBackgroundColor=none;labelBorderColor=none;fillStyle=auto;strokeColor=light-dark(#073642,#002B36);fontFamily=Courier New;fontSize=16;fontColor=light-dark(#FDF6E3,#FDF6E3);fillColor=#CB4B16;fontStyle=1" parent="1" vertex="1">
                    <mxGeometry x="-120" y="230" width="200" height="40" as="geometry"/>
                </mxCell>
                <mxCell id="51" style="edgeStyle=orthogonalEdgeStyle;rounded=0;html=1;entryX=0;entryY=0.5;entryDx=0;entryDy=0;fontSize=16;elbow=vertical;exitX=0.5;exitY=1;exitDx=0;exitDy=0;strokeColor=light-dark(#586E75,#002B36);" parent="1" source="43" target="50" edge="1">
                    <mxGeometry relative="1" as="geometry"/>
                </mxCell>
                <mxCell id="43" value="&lt;span&gt;&lt;font style=&quot;color: rgb(253, 246, 227);&quot;&gt;TC/&lt;br&gt;TM&lt;/font&gt;&lt;/span&gt;" style="rounded=0;whiteSpace=wrap;html=1;shadow=0;glass=0;labelBackgroundColor=none;labelBorderColor=none;fillStyle=auto;strokeColor=light-dark(#073642,#002B36);fontFamily=Courier New;fontSize=16;fontColor=light-dark(#FDF6E3,#FDF6E3);fillColor=#B58900;fontStyle=1" parent="1" vertex="1">
                    <mxGeometry x="-160" y="230" width="40" height="40" as="geometry"/>
                </mxCell>
                <mxCell id="49" style="edgeStyle=orthogonalEdgeStyle;rounded=0;html=1;entryX=0;entryY=0.5;entryDx=0;entryDy=0;fontSize=16;elbow=vertical;strokeColor=light-dark(#586E75,#002B36);" parent="1" source="44" target="48" edge="1">
                    <mxGeometry relative="1" as="geometry"/>
                </mxCell>
                <mxCell id="44" value="&lt;span&gt;&lt;font style=&quot;color: rgb(253, 246, 227);&quot;&gt;RESERVED&lt;/font&gt;&lt;/span&gt;" style="rounded=0;whiteSpace=wrap;html=1;shadow=0;glass=0;labelBackgroundColor=none;labelBorderColor=none;fillStyle=auto;strokeColor=light-dark(#073642,#002B36);fontFamily=Courier New;fontSize=16;fontColor=light-dark(#FDF6E3,#FDF6E3);fillColor=#DC322F;fontStyle=1" parent="1" vertex="1">
                    <mxGeometry x="80" y="230" width="80" height="40" as="geometry"/>
                </mxCell>
                <mxCell id="46" value="Unique identifier for every device capable of sending TM or receiving TC" style="text;html=1;strokeColor=none;fillColor=none;align=left;verticalAlign=top;whiteSpace=wrap;rounded=0;fontFamily=Courier New;fontColor=#586E75;fontSize=16;" parent="1" vertex="1">
                    <mxGeometry x="-40" y="310" width="260" height="70" as="geometry"/>
                </mxCell>
                <mxCell id="48" value="Reserved for future use" style="text;html=1;strokeColor=none;fillColor=none;align=left;verticalAlign=top;whiteSpace=wrap;rounded=0;fontFamily=Courier New;fontColor=#586E75;fontSize=16;" parent="1" vertex="1">
                    <mxGeometry x="155" y="280" width="225" height="30" as="geometry"/>
                </mxCell>
                <mxCell id="50" value="Flag for TM (telemetry) or TC (telecommand)" style="text;html=1;strokeColor=none;fillColor=none;align=left;verticalAlign=top;whiteSpace=wrap;rounded=0;fontFamily=Courier New;fontColor=#586E75;fontSize=16;" parent="1" vertex="1">
                    <mxGeometry x="-100" y="400" width="260" height="50" as="geometry"/>
                </mxCell>
                <mxCell id="52" value="&lt;font style=&quot;color: rgb(253, 246, 227);&quot;&gt;TIMESTAMP&lt;/font&gt;" style="rounded=0;whiteSpace=wrap;html=1;shadow=0;glass=0;labelBackgroundColor=none;labelBorderColor=none;fillStyle=auto;strokeColor=light-dark(#073642,#002B36);fontFamily=Courier New;fontSize=16;fontColor=light-dark(#FDF6E3,#FDF6E3);fillColor=#2AA198;fontStyle=1" parent="1" vertex="1">
                    <mxGeometry x="160.83" y="40" width="160" height="40" as="geometry"/>
                </mxCell>
                <mxCell id="53" value="" style="endArrow=none;html=1;fontFamily=Helvetica;fontSize=16;fontColor=#2AA198;strokeColor=#586E75;" parent="1" edge="1">
                    <mxGeometry width="50" height="50" relative="1" as="geometry">
                        <mxPoint x="720.8299999999999" y="110" as="sourcePoint"/>
                        <mxPoint x="720.8299999999999" y="90" as="targetPoint"/>
                        <Array as="points">
                            <mxPoint x="720.83" y="100"/>
                        </Array>
                    </mxGeometry>
                </mxCell>
                <mxCell id="54" value="1 byte" style="text;html=1;strokeColor=none;fillColor=none;align=center;verticalAlign=middle;whiteSpace=wrap;rounded=0;shadow=0;glass=0;labelBackgroundColor=none;labelBorderColor=none;fillStyle=auto;fontFamily=Courier New;fontSize=16;fontColor=#586E75;" parent="1" vertex="1">
                    <mxGeometry x="650.83" y="100" width="60" height="30" as="geometry"/>
                </mxCell>
                <mxCell id="55" value="" style="endArrow=none;html=1;fontFamily=Helvetica;fontSize=16;fontColor=#2AA198;strokeColor=#586E75;" parent="1" edge="1">
                    <mxGeometry width="50" height="50" relative="1" as="geometry">
                        <mxPoint x="160.83" y="110" as="sourcePoint"/>
                        <mxPoint x="160.83" y="90" as="targetPoint"/>
                        <Array as="points">
                            <mxPoint x="160.83" y="100"/>
                        </Array>
                    </mxGeometry>
                </mxCell>
                <mxCell id="56" value="8 bytes" style="text;html=1;strokeColor=none;fillColor=none;align=center;verticalAlign=middle;whiteSpace=wrap;rounded=0;shadow=0;glass=0;labelBackgroundColor=none;labelBorderColor=none;fillStyle=auto;fontFamily=Courier New;fontSize=16;fontColor=#586E75;" parent="1" vertex="1">
                    <mxGeometry x="178.33000000000004" y="100" width="125" height="30" as="geometry"/>
                </mxCell>
                <mxCell id="58" style="edgeStyle=orthogonalEdgeStyle;html=1;exitX=0.5;exitY=1;exitDx=0;exitDy=0;rounded=0;entryX=0;entryY=0.5;entryDx=0;entryDy=0;strokeColor=light-dark(#586E75,#002B36);" parent="1" source="57" target="62" edge="1">
                    <mxGeometry relative="1" as="geometry">
                        <mxPoint x="540" y="275" as="targetPoint"/>
                        <Array as="points">
                            <mxPoint x="481" y="275"/>
                        </Array>
                    </mxGeometry>
                </mxCell>
                <mxCell id="61" style="edgeStyle=orthogonalEdgeStyle;rounded=0;html=1;exitX=0.5;exitY=1;exitDx=0;exitDy=0;entryX=0;entryY=0.5;entryDx=0;entryDy=0;strokeColor=light-dark(#586E75,#002B36);" parent="1" source="57" target="60" edge="1">
                    <mxGeometry relative="1" as="geometry"/>
                </mxCell>
                <mxCell id="64" style="edgeStyle=orthogonalEdgeStyle;rounded=0;html=1;exitX=0.5;exitY=1;exitDx=0;exitDy=0;entryX=0;entryY=0.5;entryDx=0;entryDy=0;strokeColor=light-dark(#586E75,#002B36);" parent="1" source="57" target="63" edge="1">
                    <mxGeometry relative="1" as="geometry"/>
                </mxCell>
                <mxCell id="57" value="&lt;b&gt;&lt;font style=&quot;color: rgb(253, 246, 227);&quot;&gt;TIMESTAMP&lt;/font&gt;&lt;/b&gt;" style="rounded=0;whiteSpace=wrap;html=1;shadow=0;glass=0;labelBackgroundColor=none;labelBorderColor=none;fillStyle=auto;strokeColor=light-dark(#073642,#002B36);fontFamily=Courier New;fontSize=16;fontColor=light-dark(#FDF6E3,#FDF6E3);fillColor=#2AA198;fontStyle=0" parent="1" vertex="1">
                    <mxGeometry x="400.83000000000004" y="200" width="160" height="40" as="geometry"/>
                </mxCell>
                <mxCell id="60" value="In nanoseconds" style="text;html=1;strokeColor=none;fillColor=none;align=left;verticalAlign=top;whiteSpace=wrap;rounded=0;fontFamily=Courier New;fontColor=#586E75;fontSize=16;" parent="1" vertex="1">
                    <mxGeometry x="540" y="290" width="250" height="30" as="geometry"/>
                </mxCell>
                <mxCell id="62" value="Time from Unix Epoch" style="text;html=1;strokeColor=none;fillColor=none;align=left;verticalAlign=top;whiteSpace=wrap;rounded=0;fontFamily=Courier New;fontColor=#586E75;fontSize=16;" parent="1" vertex="1">
                    <mxGeometry x="540" y="260" width="250" height="30" as="geometry"/>
                </mxCell>
                <mxCell id="63" value="64-bit unsigned integer" style="text;html=1;strokeColor=none;fillColor=none;align=left;verticalAlign=top;whiteSpace=wrap;rounded=0;fontFamily=Courier New;fontColor=#586E75;fontSize=16;" parent="1" vertex="1">
                    <mxGeometry x="540" y="320" width="250" height="30" as="geometry"/>
                </mxCell>
                <mxCell id="67" value="V1.0.0" style="text;html=1;strokeColor=none;fillColor=none;align=left;verticalAlign=top;whiteSpace=wrap;rounded=0;fontSize=20;fontFamily=Courier New;fontColor=#586E75;" parent="1" vertex="1">
                    <mxGeometry x="-190" y="-70" width="80" height="30" as="geometry"/>
                </mxCell>
                <mxCell id="68" value="&lt;span style=&quot;font-size: 16px;&quot;&gt;&lt;font style=&quot;color: rgb(253, 246, 227);&quot;&gt;x01&lt;/font&gt;&lt;br&gt;&lt;/span&gt;" style="rounded=0;whiteSpace=wrap;html=1;shadow=0;glass=0;labelBackgroundColor=none;labelBorderColor=none;fillStyle=auto;strokeColor=light-dark(#073642,#002B36);fontFamily=Courier New;fontSize=16;fontColor=light-dark(#FDF6E3,#FDF6E3);fillColor=#073642;fontStyle=1" parent="1" vertex="1">
                    <mxGeometry x="-80" y="40" width="80" height="40" as="geometry"/>
                </mxCell>
                <mxCell id="69" value="1 byte" style="text;html=1;strokeColor=none;fillColor=none;align=center;verticalAlign=middle;whiteSpace=wrap;rounded=0;shadow=0;glass=0;labelBackgroundColor=none;labelBorderColor=none;fillStyle=auto;fontFamily=Courier New;fontSize=16;fontColor=#586E75;" parent="1" vertex="1">
                    <mxGeometry x="-79.99999999999999" y="100" width="70" height="30" as="geometry"/>
                </mxCell>
                <mxCell id="70" value="" style="endArrow=none;html=1;fontFamily=Helvetica;fontSize=16;fontColor=#2AA198;strokeColor=#586E75;" parent="1" edge="1">
                    <mxGeometry width="50" height="50" relative="1" as="geometry">
                        <mxPoint x="-80" y="110" as="sourcePoint"/>
                        <mxPoint x="-80" y="90" as="targetPoint"/>
                    </mxGeometry>
                </mxCell>
                <mxCell id="71" value="Version byte" style="text;html=1;strokeColor=none;fillColor=none;align=center;verticalAlign=middle;whiteSpace=wrap;rounded=0;fontFamily=Courier New;fontColor=#586E75;fontSize=16;" parent="1" vertex="1">
                    <mxGeometry x="-170" y="45" width="80" height="30" as="geometry"/>
                </mxCell>
            </root>
        </mxGraphModel>
    </diagram>
</mxfile>